<svg xmlns="http://www.w3.org/2000/svg" viewBox="0 0 600 340" width="600" height="340"><line x1="20" y1="330" x2="580" y2="330" stroke="#2f474d" stroke-width="2" opacity=".35"/><g><line x1="85.92" y1="187" x2="85.92" y2="318" stroke="#2f474d" stroke-width="25.2" stroke-linecap="round"/><line x1="85.92" y1="187" x2="85.92" y2="318" stroke="#6b8a99" stroke-width="19.2" stroke-linecap="round"/><line x1="114.08" y1="187" x2="114.08" y2="318" stroke="#2f474d" stroke-width="25.2" stroke-linecap="round"/><line x1="114.08" y1="187" x2="114.08" y2="318" stroke="#6b8a99" stroke-width="19.2" stroke-linecap="round"/><ellipse cx="85.92" cy="324" rx="12.8" ry="6.5" fill="#2f474d" stroke="#2f474d" stroke-width="3"/><ellipse cx="114.08" cy="324" rx="12.8" ry="6.5" fill="#2f474d" stroke="#2f474d" stroke-width="3"/><line x1="74" y1="102" x2="62" y2="124" stroke="#2f474d" stroke-width="22.8" stroke-linecap="round"/><line x1="74" y1="102" x2="62" y2="124" stroke="#7f9160" stroke-width="16.8" stroke-linecap="round"/><line x1="62" y1="124" x2="56" y2="186.05" stroke="#2f474d" stroke-width="18.8" stroke-linecap="round"/><line x1="62" y1="124" x2="56" y2="186.05" stroke="#fbf7ef" stroke-width="12.8" stroke-linecap="round"/><circle cx="56" cy="186.05" r="8.96" fill="#fbf7ef" stroke="#2f474d" stroke-width="3" /><rect x="68" y="92" width="64" height="99" rx="14.08" fill="#7f9160" stroke="#2f474d" stroke-width="3"/><line x1="100" y1="72" x2="100" y2="94" stroke="#2f474d" stroke-width="17.52" stroke-linecap="round"/><line x1="100" y1="72" x2="100" y2="94" stroke="#fbf7ef" stroke-width="11.52" stroke-linecap="round"/><line x1="126" y1="102" x2="138" y2="124" stroke="#2f474d" stroke-width="22.8" stroke-linecap="round"/><line x1="126" y1="102" x2="138" y2="124" stroke="#7f9160" stroke-width="16.8" stroke-linecap="round"/><line x1="138" y1="124" x2="144" y2="186.05" stroke="#2f474d" stroke-width="18.8" stroke-linecap="round"/><line x1="138" y1="124" x2="144" y2="186.05" stroke="#fbf7ef" stroke-width="12.8" stroke-linecap="round"/><circle cx="144" cy="186.05" r="8.96" fill="#fbf7ef" stroke="#2f474d" stroke-width="3" /><circle cx="74" cy="59" r="5.2" fill="#fbf7ef" stroke="#2f474d" stroke-width="3" /><circle cx="126" cy="59" r="5.2" fill="#fbf7ef" stroke="#2f474d" stroke-width="3" /><circle cx="100" cy="56" r="26" fill="#fbf7ef" stroke="#2f474d" stroke-width="3" /><g transform="translate(100 56)"><path d="M-26 -2 C-26 -35.1 26 -35.1 26 -2 L26 -13 Q13 -19.5 2.6 -14.3 Q-10.4 -9.1 -26 -13 Z" fill="#2f474d" stroke="#2f474d" stroke-width="3" stroke-linecap="round" stroke-linejoin="round" /><circle cx="-9.88" cy="-1.3" r="2.8" fill="#2f474d"/><circle cx="9.88" cy="-1.3" r="2.8" fill="#2f474d"/><path d="M-14.88 -8.84 q5 -3 10 0" fill="none" stroke="#2f474d" stroke-width="3" stroke-linecap="round" stroke-linejoin="round" /><path d="M4.880000000000001 -8.84 q5 -3 10 0" fill="none" stroke="#2f474d" stroke-width="3" stroke-linecap="round" stroke-linejoin="round" /><path d="M0 0.52 q4 7 -1 10" fill="none" stroke="#2f474d" stroke-width="3" stroke-linecap="round" stroke-linejoin="round" /><path d="M-8 10.92 Q0 17.92 8 10.92" fill="none" stroke="#2f474d" stroke-width="3" stroke-linecap="round" stroke-linejoin="round" /></g><line x1="56" y1="186.05" x2="56" y2="200.05" stroke="#2f474d" stroke-width="3"/><rect x="41" y="200.05" width="30" height="121.94999999999999" rx="5" fill="#6b8a99" stroke="#2f474d" stroke-width="3"/><line x1="49" y1="208.05" x2="49" y2="316" stroke="#2f474d" stroke-width="2" opacity=".6"/><circle cx="48" cy="324" r="4" fill="#2f474d" stroke="#2f474d" stroke-width="3" /><circle cx="64" cy="324" r="4" fill="#2f474d" stroke="#2f474d" stroke-width="3" /></g><g transform="translate(200 0)"><line x1="88.12" y1="256" x2="88.12" y2="318" stroke="#2f474d" stroke-width="18.96" stroke-linecap="round"/><line x1="88.12" y1="256" x2="88.12" y2="318" stroke="#fbf7ef" stroke-width="12.96" stroke-linecap="round"/><line x1="88.12" y1="256" x2="88.12" y2="287" stroke="#2f474d" stroke-width="22.2" stroke-linecap="round"/><line x1="88.12" y1="256" x2="88.12" y2="287" stroke="#6b8a99" stroke-width="16.2" stroke-linecap="round"/><line x1="111.88" y1="256" x2="111.88" y2="318" stroke="#2f474d" stroke-width="18.96" stroke-linecap="round"/><line x1="111.88" y1="256" x2="111.88" y2="318" stroke="#fbf7ef" stroke-width="12.96" stroke-linecap="round"/><line x1="111.88" y1="256" x2="111.88" y2="287" stroke="#2f474d" stroke-width="22.2" stroke-linecap="round"/><line x1="111.88" y1="256" x2="111.88" y2="287" stroke="#6b8a99" stroke-width="16.2" stroke-linecap="round"/><ellipse cx="88.12" cy="324" rx="10.8" ry="6.5" fill="#2f474d" stroke="#2f474d" stroke-width="3"/><ellipse cx="111.88" cy="324" rx="10.8" ry="6.5" fill="#2f474d" stroke="#2f474d" stroke-width="3"/><line x1="79" y1="210" x2="67" y2="232" stroke="#2f474d" stroke-width="20.8" stroke-linecap="round"/><line x1="79" y1="210" x2="67" y2="232" stroke="#c9a648" stroke-width="14.8" stroke-linecap="round"/><line x1="67" y1="232" x2="51" y2="214" stroke="#2f474d" stroke-width="16.8" stroke-linecap="round"/><line x1="67" y1="232" x2="51" y2="214" stroke="#fbf7ef" stroke-width="10.8" stroke-linecap="round"/><line x1="51" y1="214" x2="33" y2="170" stroke="#2f474d" stroke-width="16.8" stroke-linecap="round"/><line x1="51" y1="214" x2="33" y2="170" stroke="#fbf7ef" stroke-width="10.8" stroke-linecap="round"/><circle cx="33" cy="170" r="7.5600000000000005" fill="#fbf7ef" stroke="#2f474d" stroke-width="3" /><rect x="73" y="200" width="54" height="60" rx="11.88" fill="#c9a648" stroke="#2f474d" stroke-width="3"/><path d="M75 225.2 H125 M75 237.2 H125" stroke="#2f474d" stroke-width="2" opacity=".7"/><line x1="100" y1="180" x2="100" y2="202" stroke="#2f474d" stroke-width="15.719999999999999" stroke-linecap="round"/><line x1="100" y1="180" x2="100" y2="202" stroke="#fbf7ef" stroke-width="9.719999999999999" stroke-linecap="round"/><line x1="121" y1="210" x2="133" y2="232" stroke="#2f474d" stroke-width="20.8" stroke-linecap="round"/><line x1="121" y1="210" x2="133" y2="232" stroke="#c9a648" stroke-width="14.8" stroke-linecap="round"/><line x1="133" y1="232" x2="149" y2="214" stroke="#2f474d" stroke-width="16.8" stroke-linecap="round"/><line x1="133" y1="232" x2="149" y2="214" stroke="#fbf7ef" stroke-width="10.8" stroke-linecap="round"/><line x1="149" y1="214" x2="167" y2="170" stroke="#2f474d" stroke-width="16.8" stroke-linecap="round"/><line x1="149" y1="214" x2="167" y2="170" stroke="#fbf7ef" stroke-width="10.8" stroke-linecap="round"/><circle cx="167" cy="170" r="7.5600000000000005" fill="#fbf7ef" stroke="#2f474d" stroke-width="3" /><circle cx="70" cy="163" r="6" fill="#fbf7ef" stroke="#2f474d" stroke-width="3" /><circle cx="130" cy="163" r="6" fill="#fbf7ef" stroke="#2f474d" stroke-width="3" /><circle cx="100" cy="160" r="30" fill="#fbf7ef" stroke="#2f474d" stroke-width="3" /><g transform="translate(100 160)"><path d="M-34 1.5 Q-29.142857142857142 -38.1 -24.285714285714285 -18.6 Q-19.428571428571427 -34.5 -14.571428571428571 -18.6 Q-9.714285714285715 -38.1 -4.857142857142859 -18.6 Q-4.440892098500626e-15 -34.5 4.857142857142852 -18.6 Q9.714285714285712 -38.1 14.571428571428568 -18.6 Q19.428571428571427 -34.5 24.285714285714285 -18.6 Q29.142857142857135 -38.1 33.99999999999999 1.5 L30 -13.5 Q9 -7.5 0 -13.5 Q-9 -19.5 -30 -13.5 Z" fill="#2f474d" stroke="#2f474d" stroke-width="3" stroke-linecap="round" stroke-linejoin="round" /><path d="M-16.4 -1.5 q5 -6 10 0" fill="none" stroke="#2f474d" stroke-width="3" stroke-linecap="round" stroke-linejoin="round" /><path d="M6.4 -1.5 q5 -6 10 0" fill="none" stroke="#2f474d" stroke-width="3" stroke-linecap="round" stroke-linejoin="round" /><path d="M-16.4 -10.200000000000001 q5 -3 10 0" fill="none" stroke="#2f474d" stroke-width="3" stroke-linecap="round" stroke-linejoin="round" /><path d="M6.4 -10.200000000000001 q5 -3 10 0" fill="none" stroke="#2f474d" stroke-width="3" stroke-linecap="round" stroke-linejoin="round" /><path d="M0 0.6 q4 7 -1 10" fill="none" stroke="#2f474d" stroke-width="3" stroke-linecap="round" stroke-linejoin="round" /><path d="M-9 10.6 Q0 25.6 9 10.6 Z" fill="#2f474d" stroke="#2f474d" stroke-width="3" stroke-linecap="round" stroke-linejoin="round" /></g></g><g transform="translate(400 0)"><line x1="86.8" y1="199.06" x2="86.8" y2="318" stroke="#2f474d" stroke-width="24" stroke-linecap="round"/><line x1="86.8" y1="199.06" x2="86.8" y2="318" stroke="#2f474d" stroke-width="18" stroke-linecap="round"/><line x1="113.2" y1="199.06" x2="113.2" y2="318" stroke="#2f474d" stroke-width="24" stroke-linecap="round"/><line x1="113.2" y1="199.06" x2="113.2" y2="318" stroke="#2f474d" stroke-width="18" stroke-linecap="round"/><ellipse cx="86.8" cy="324" rx="12" ry="6.5" fill="#2f474d" stroke="#2f474d" stroke-width="3"/><ellipse cx="113.2" cy="324" rx="12" ry="6.5" fill="#2f474d" stroke="#2f474d" stroke-width="3"/><line x1="76" y1="120" x2="64" y2="142" stroke="#2f474d" stroke-width="22" stroke-linecap="round"/><line x1="76" y1="120" x2="64" y2="142" stroke="#c9a648" stroke-width="16" stroke-linecap="round"/><line x1="64" y1="142" x2="58" y2="198.40699999999998" stroke="#2f474d" stroke-width="18" stroke-linecap="round"/><line x1="64" y1="142" x2="58" y2="198.40699999999998" stroke="#fbf7ef" stroke-width="12" stroke-linecap="round"/><circle cx="58" cy="198.40699999999998" r="8.4" fill="#fbf7ef" stroke="#2f474d" stroke-width="3" /><rect x="70" y="110" width="60" height="93.06" rx="13.2" fill="#c9a648" stroke="#2f474d" stroke-width="3"/><path d="M90 112 L100 124 L110 112" fill="#fbf7ef" stroke="#2f474d" stroke-width="3" stroke-linecap="round" stroke-linejoin="round" /><circle cx="100" cy="151.877" r="1.8" fill="#2f474d"/><circle cx="100" cy="170.489" r="1.8" fill="#2f474d"/><line x1="100" y1="90" x2="100" y2="112" stroke="#2f474d" stroke-width="16.799999999999997" stroke-linecap="round"/><line x1="100" y1="90" x2="100" y2="112" stroke="#fbf7ef" stroke-width="10.799999999999999" stroke-linecap="round"/><line x1="124" y1="120" x2="136" y2="142" stroke="#2f474d" stroke-width="22" stroke-linecap="round"/><line x1="124" y1="120" x2="136" y2="142" stroke="#c9a648" stroke-width="16" stroke-linecap="round"/><line x1="136" y1="142" x2="152" y2="136" stroke="#2f474d" stroke-width="18" stroke-linecap="round"/><line x1="136" y1="142" x2="152" y2="136" stroke="#fbf7ef" stroke-width="12" stroke-linecap="round"/><line x1="152" y1="136" x2="164" y2="74" stroke="#2f474d" stroke-width="18" stroke-linecap="round"/><line x1="152" y1="136" x2="164" y2="74" stroke="#fbf7ef" stroke-width="12" stroke-linecap="round"/><circle cx="164" cy="74" r="8.4" fill="#fbf7ef" stroke="#2f474d" stroke-width="3" /><circle cx="74" cy="77" r="5.2" fill="#fbf7ef" stroke="#2f474d" stroke-width="3" /><circle cx="126" cy="77" r="5.2" fill="#fbf7ef" stroke="#2f474d" stroke-width="3" /><circle cx="100" cy="74" r="26" fill="#fbf7ef" stroke="#2f474d" stroke-width="3" /><g transform="translate(100 74)"><circle cx="-24.7" cy="-14.3" r="9.36" fill="#2f474d" stroke="#2f474d" stroke-width="3" /><path d="M-26 0 C-26 -35.1 26 -35.1 26 0 L26 -10.4 Q10.4 -5.2 -2.6 -13 Q-14.3 -18.2 -26 -7.8 Z" fill="#2f474d" stroke="#2f474d" stroke-width="3" stroke-linecap="round" stroke-linejoin="round" /><circle cx="-9.88" cy="-1.3" r="2.8" fill="#2f474d"/><circle cx="9.88" cy="-1.3" r="2.8" fill="#2f474d"/><path d="M-14.88 -8.84 q5 -3 10 0" fill="none" stroke="#2f474d" stroke-width="3" stroke-linecap="round" stroke-linejoin="round" /><path d="M4.880000000000001 -8.84 q5 -3 10 0" fill="none" stroke="#2f474d" stroke-width="3" stroke-linecap="round" stroke-linejoin="round" /><path d="M0 0.52 q4 7 -1 10" fill="none" stroke="#2f474d" stroke-width="3" stroke-linecap="round" stroke-linejoin="round" /><path d="M-8 10.92 Q0 17.92 8 10.92" fill="none" stroke="#2f474d" stroke-width="3" stroke-linecap="round" stroke-linejoin="round" /><circle cx="-9.88" cy="-0.30000000000000004" r="7.0200000000000005" fill="none" stroke="#2f474d" stroke-width="2.4"/><circle cx="9.88" cy="-0.30000000000000004" r="7.0200000000000005" fill="none" stroke="#2f474d" stroke-width="2.4"/><line x1="-2.8600000000000003" y1="-0.30000000000000004" x2="2.8600000000000003" y2="-0.30000000000000004" stroke="#2f474d" stroke-width="2.4"/></g></g></svg>